<svg xmlns="http://www.w3.org/2000/svg" viewBox="0 0 560 128" role="img" aria-labelledby="freshspace-logo-title">
  <title id="freshspace-logo-title">FreshSpace</title>
  <defs>
    <linearGradient id="freshspace-leaf" x1="0" y1="0" x2="1" y2="1">
      <stop offset="0" stop-color="#7FAE8A"/>
      <stop offset="1" stop-color="#476753"/>
    </linearGradient>
  </defs>
  <g fill="none" fill-rule="evenodd">
    <rect x="8" y="8" width="112" height="112" rx="30" fill="#E7EFE5"/>
    <path d="M88.4 27.8c-27.5 6.2-48.2 24.6-53.2 48.7-1.1 5.3-.9 10.1.4 14.3 4.2-10.8 13.2-21.2 26.3-30.3 1.3-.9 3.1-.6 4 .7.9 1.3.6 3.1-.7 4-13.7 9.5-22.2 20.5-24.7 31.6 3.7 2.8 8.6 4.2 14.5 4.2 24.9 0 43.7-24.5 45-59.1.2-5.8-5.9-15.3-11.6-14.1Z" fill="url(#freshspace-leaf)"/>
    <path d="M76 77.2c8.7-8.9 14-20.3 16.1-34.1" stroke="#F9F7F0" stroke-width="7" stroke-linecap="round"/>
    <text x="148" y="74" fill="#24322D" font-family="Inter, Arial, sans-serif" font-size="48" font-weight="750" letter-spacing="0">FreshSpace</text>
    <text x="151" y="101" fill="#5F7F67" font-family="Inter, Arial, sans-serif" font-size="18" font-weight="600" letter-spacing="2.8">HOME FRESHNESS</text>
  </g>
</svg>
